<svg width="118" height="40" viewBox="0 0 118 40" fill="none"
  xmlns="http://www.w3.org/2000/svg">
  <path d="M14.166 40C11.4156 40 8.75639 39.6245 6.18829 38.8736C3.62019 38.1227 1.55743 37.1464 0 35.9449L2.73378 29.8373C4.22494 30.9387 5.99775 31.8231 8.05223 32.4906C10.1067 33.1581 12.1612 33.4919 14.2157 33.4919C16.5021 33.4919 18.1921 33.1498 19.2856 32.4656C20.3791 31.7814 20.9259 30.8719 20.9259 29.7372C20.9259 28.9028 20.6028 28.2103 19.9566 27.6596C19.3104 27.1089 18.482 26.6667 17.4714 26.3329C16.4607 25.9992 15.0938 25.632 13.3707 25.2315C10.7197 24.5974 8.54928 23.9633 6.85931 23.3292C5.16933 22.695 3.7196 21.6771 2.51011 20.2753C1.30062 18.8736 0.695872 17.0046 0.695872 14.6683C0.695872 12.6325 1.24263 10.7885 2.33614 9.13642C3.42965 7.48435 5.07821 6.17438 7.2818 5.20651C9.4854 4.23863 12.1778 3.75469 15.3589 3.75469C17.5791 3.75469 19.7495 4.02169 21.8703 4.55569C23.991 5.08969 25.8467 5.85732 27.4372 6.85857L24.952 13.0163C21.7377 11.1806 18.5234 10.2628 15.3092 10.2628C13.0559 10.2628 11.3908 10.63 10.3138 11.3642C9.23687 12.0985 8.6984 13.0663 8.6984 14.2678C8.6984 15.4693 9.31971 16.3621 10.5623 16.9462C11.805 17.5302 13.7021 18.106 16.2536 18.6733C18.9045 19.3075 21.075 19.9416 22.765 20.5757C24.4549 21.2098 25.9047 22.2111 27.1142 23.5795C28.3236 24.9479 28.9284 26.8002 28.9284 29.1364C28.9284 31.1389 28.3733 32.9662 27.2633 34.6183C26.1532 36.2703 24.4881 37.5803 22.2679 38.5482C20.0477 39.5161 17.3471 40 14.166 40ZM46.6234 39.7998C43.8068 39.7998 41.2801 39.2073 39.0434 38.0225C36.8067 36.8377 35.0587 35.194 33.7995 33.0914C32.5403 30.9887 31.9107 28.6024 31.9107 25.9324C31.9107 23.2624 32.5403 20.8761 33.7995 18.7735C35.0587 16.6708 36.8067 15.0271 39.0434 13.8423C41.2801 12.6575 43.8068 12.0651 46.6234 12.0651C49.44 12.0651 51.9584 12.6575 54.1786 13.8423C56.3988 15.0271 58.1384 16.6708 59.3976 18.7735C60.6568 20.8761 61.2864 23.2624 61.2864 25.9324C61.2864 28.6024 60.6568 30.9887 59.3976 33.0914C58.1384 35.194 56.3988 36.8377 54.1786 38.0225C51.9584 39.2073 49.44 39.7998 46.6234 39.7998ZM46.6234 33.3917C48.6116 33.3917 50.2436 32.7159 51.5194 31.3642C52.7951 30.0125 53.433 28.2019 53.433 25.9324C53.433 23.6629 52.7951 21.8523 51.5194 20.5006C50.2436 19.1489 48.6116 18.4731 46.6234 18.4731C44.6352 18.4731 42.9949 19.1489 41.7026 20.5006C40.4103 21.8523 39.7641 23.6629 39.7641 25.9324C39.7641 28.2019 40.4103 30.0125 41.7026 31.3642C42.9949 32.7159 44.6352 33.3917 46.6234 33.3917ZM66.4558 39.3993V2.25282H74.2098V39.3993H66.4558ZM81.417 39.3993V12.4656H89.171V39.3993H81.417ZM85.294 8.71089C83.8691 8.71089 82.7093 8.2937 81.8147 7.45932C80.92 6.62495 80.4726 5.59032 80.4726 4.35544C80.4726 3.12057 80.92 2.08594 81.8147 1.25156C82.7093 0.417188 83.8691 0 85.294 0C86.7189 0 87.8787 0.4005 88.7734 1.2015C89.6681 2.0025 90.1154 3.00375 90.1154 4.20526C90.1154 5.50688 89.6681 6.58323 88.7734 7.43429C87.8787 8.28536 86.7189 8.71089 85.294 8.71089ZM105.375 39.7998C103.155 39.7998 100.984 39.5244 98.8635 38.9737C96.7428 38.423 95.0528 37.7305 93.7936 36.8961L96.3783 31.2891C97.5712 32.0567 99.0126 32.6825 100.703 33.1665C102.393 33.6504 104.049 33.8924 105.673 33.8924C108.954 33.8924 110.594 33.0747 110.594 31.4393C110.594 30.6717 110.147 30.121 109.252 29.7872C108.357 29.4535 106.982 29.1698 105.126 28.9362C102.939 28.6024 101.133 28.2186 99.7085 27.7847C98.2836 27.3509 97.0493 26.5832 96.0055 25.4819C94.9617 24.3805 94.4398 22.8118 94.4398 20.776C94.4398 19.0738 94.9285 17.5636 95.9061 16.2453C96.8836 14.927 98.3085 13.9007 100.181 13.1665C102.053 12.4322 104.265 12.0651 106.816 12.0651C108.705 12.0651 110.586 12.2737 112.458 12.6909C114.33 13.1081 115.879 13.6838 117.105 14.418L114.521 19.975C112.168 18.64 109.6 17.9725 106.816 17.9725C105.16 17.9725 103.917 18.2061 103.088 18.6733C102.26 19.1406 101.846 19.7413 101.846 20.4756C101.846 21.31 102.293 21.894 103.188 22.2278C104.083 22.5615 105.507 22.8786 107.463 23.179C109.65 23.5461 111.439 23.9383 112.831 24.3554C114.222 24.7726 115.432 25.5319 116.459 26.6333C117.486 27.7347 118 29.2699 118 31.239C118 32.9078 117.503 34.393 116.509 35.6946C115.515 36.9962 114.065 38.0058 112.16 38.7234C110.254 39.441 107.993 39.7998 105.375 39.7998Z" fill="#28208C"/>
</svg>
