<svg width="168" height="112" viewBox="0 0 168 112" fill="none" xmlns="http://www.w3.org/2000/svg">
<path d="M80.377 2.89466C81.1763 2.89466 81.8243 2.24667 81.8243 1.44733C81.8243 0.647993 81.1763 0 80.377 0C79.5776 0 78.9296 0.647993 78.9296 1.44733C78.9296 2.24667 79.5776 2.89466 80.377 2.89466Z" fill="#928CD1" fill-opacity="0.525"/>
<path d="M80.3769 10.377C81.3003 10.377 82.0488 9.62844 82.0488 8.70509C82.0488 7.78173 81.3003 7.0332 80.3769 7.0332C79.4536 7.0332 78.705 7.78173 78.705 8.70509C78.705 9.62844 79.4536 10.377 80.3769 10.377Z" fill="#928CD1" fill-opacity="0.525"/>
<path d="M80.3769 17.8536C81.4233 17.8536 82.2715 17.0053 82.2715 15.959C82.2715 14.9127 81.4233 14.0645 80.3769 14.0645C79.3306 14.0645 78.4824 14.9127 78.4824 15.959C78.4824 17.0053 79.3306 17.8536 80.3769 17.8536Z" fill="#928CD1" fill-opacity="0.525"/>
<path d="M80.3788 25.3324C81.5461 25.3324 82.4923 24.3861 82.4923 23.2189C82.4923 22.0517 81.5461 21.1055 80.3788 21.1055C79.2116 21.1055 78.2654 22.0517 78.2654 23.2189C78.2654 24.3861 79.2116 25.3324 80.3788 25.3324Z" fill="#928CD1" fill-opacity="0.525"/>
<path d="M80.377 32.7423C81.6693 32.7423 82.7168 31.6947 82.7168 30.4024C82.7168 29.1101 81.6693 28.0625 80.377 28.0625C79.0847 28.0625 78.0371 29.1101 78.0371 30.4024C78.0371 31.6947 79.0847 32.7423 80.377 32.7423Z" fill="#928CD1" fill-opacity="0.525"/>
<path d="M80.3788 40.2914C81.792 40.2914 82.9376 39.1458 82.9376 37.7326C82.9376 36.3194 81.792 35.1738 80.3788 35.1738C78.9657 35.1738 77.8201 36.3194 77.8201 37.7326C77.8201 39.1458 78.9657 40.2914 80.3788 40.2914Z" fill="#928CD1" fill-opacity="0.525"/>
<path d="M80.3788 47.7755C81.9171 47.7755 83.164 46.5285 83.164 44.9903C83.164 43.4521 81.9171 42.2051 80.3788 42.2051C78.8406 42.2051 77.5936 43.4521 77.5936 44.9903C77.5936 46.5285 78.8406 47.7755 80.3788 47.7755Z" fill="#928CD1" fill-opacity="0.525"/>
<path d="M73.2214 2.89466C74.0208 2.89466 74.6687 2.24667 74.6687 1.44733C74.6687 0.647993 74.0208 0 73.2214 0C72.4221 0 71.7741 0.647993 71.7741 1.44733C71.7741 2.24667 72.4221 2.89466 73.2214 2.89466Z" fill="#928CD1" fill-opacity="0.525"/>
<path d="M73.2214 10.377C74.1448 10.377 74.8933 9.62844 74.8933 8.70509C74.8933 7.78173 74.1448 7.0332 73.2214 7.0332C72.2981 7.0332 71.5495 7.78173 71.5495 8.70509C71.5495 9.62844 72.2981 10.377 73.2214 10.377Z" fill="#928CD1" fill-opacity="0.525"/>
<path d="M73.2214 17.8536C74.2678 17.8536 75.116 17.0053 75.116 15.959C75.116 14.9127 74.2678 14.0645 73.2214 14.0645C72.1751 14.0645 71.3269 14.9127 71.3269 15.959C71.3269 17.0053 72.1751 17.8536 73.2214 17.8536Z" fill="#928CD1" fill-opacity="0.525"/>
<path d="M73.2215 25.3324C74.3887 25.3324 75.3349 24.3861 75.3349 23.2189C75.3349 22.0517 74.3887 21.1055 73.2215 21.1055C72.0542 21.1055 71.108 22.0517 71.108 23.2189C71.108 24.3861 72.0542 25.3324 73.2215 25.3324Z" fill="#928CD1" fill-opacity="0.525"/>
<path d="M73.2215 32.7423C74.5137 32.7423 75.5613 31.6947 75.5613 30.4024C75.5613 29.1101 74.5137 28.0625 73.2215 28.0625C71.9292 28.0625 70.8816 29.1101 70.8816 30.4024C70.8816 31.6947 71.9292 32.7423 73.2215 32.7423Z" fill="#928CD1" fill-opacity="0.525"/>
<path d="M73.2214 40.2914C74.6346 40.2914 75.7802 39.1458 75.7802 37.7326C75.7802 36.3194 74.6346 35.1738 73.2214 35.1738C71.8082 35.1738 70.6626 36.3194 70.6626 37.7326C70.6626 39.1458 71.8082 40.2914 73.2214 40.2914Z" fill="#928CD1" fill-opacity="0.525"/>
<path d="M73.2214 111.613C74.0208 111.613 74.6687 110.965 74.6687 110.166C74.6687 109.367 74.0208 108.719 73.2214 108.719C72.4221 108.719 71.7741 109.367 71.7741 110.166C71.7741 110.965 72.4221 111.613 73.2214 111.613Z" fill="#928CD1" fill-opacity="0.525"/>
<path d="M73.2214 104.709C74.1448 104.709 74.8933 103.96 74.8933 103.037C74.8933 102.114 74.1448 101.365 73.2214 101.365C72.2981 101.365 71.5495 102.114 71.5495 103.037C71.5495 103.96 72.2981 104.709 73.2214 104.709Z" fill="#928CD1" fill-opacity="0.525"/>
<path d="M73.2215 97.6681C74.2668 97.6681 75.1141 96.8208 75.1141 95.7755C75.1141 94.7302 74.2668 93.8828 73.2215 93.8828C72.1762 93.8828 71.3288 94.7302 71.3288 95.7755C71.3288 96.8208 72.1762 97.6681 73.2215 97.6681Z" fill="#928CD1" fill-opacity="0.525"/>
<path d="M73.2214 90.633C74.3897 90.633 75.3367 89.6859 75.3367 88.5177C75.3367 87.3494 74.3897 86.4023 73.2214 86.4023C72.0531 86.4023 71.1061 87.3494 71.1061 88.5177C71.1061 89.6859 72.0531 90.633 73.2214 90.633Z" fill="#928CD1" fill-opacity="0.525"/>
<path d="M73.2214 83.5979C74.5127 83.5979 75.5594 82.5511 75.5594 81.2599C75.5594 79.9686 74.5127 78.9219 73.2214 78.9219C71.9302 78.9219 70.8834 79.9686 70.8834 81.2599C70.8834 82.5511 71.9302 83.5979 73.2214 83.5979Z" fill="#928CD1" fill-opacity="0.525"/>
<path d="M73.2214 76.5668C74.6346 76.5668 75.7802 75.4212 75.7802 74.008C75.7802 72.5948 74.6346 71.4492 73.2214 71.4492C71.8082 71.4492 70.6626 72.5948 70.6626 74.008C70.6626 75.4212 71.8082 76.5668 73.2214 76.5668Z" fill="#928CD1" fill-opacity="0.525"/>
<path d="M80.377 111.613C81.1763 111.613 81.8243 110.965 81.8243 110.166C81.8243 109.367 81.1763 108.719 80.377 108.719C79.5776 108.719 78.9296 109.367 78.9296 110.166C78.9296 110.965 79.5776 111.613 80.377 111.613Z" fill="#928CD1" fill-opacity="0.525"/>
<path d="M80.3769 104.709C81.3003 104.709 82.0488 103.96 82.0488 103.037C82.0488 102.114 81.3003 101.365 80.3769 101.365C79.4536 101.365 78.705 102.114 78.705 103.037C78.705 103.96 79.4536 104.709 80.3769 104.709Z" fill="#928CD1" fill-opacity="0.525"/>
<path d="M80.3769 97.6681C81.4222 97.6681 82.2696 96.8208 82.2696 95.7755C82.2696 94.7302 81.4222 93.8828 80.3769 93.8828C79.3316 93.8828 78.4843 94.7302 78.4843 95.7755C78.4843 96.8208 79.3316 97.6681 80.3769 97.6681Z" fill="#928CD1" fill-opacity="0.525"/>
<path d="M80.3788 90.633C81.5471 90.633 82.4942 89.6859 82.4942 88.5177C82.4942 87.3494 81.5471 86.4023 80.3788 86.4023C79.2106 86.4023 78.2635 87.3494 78.2635 88.5177C78.2635 89.6859 79.2106 90.633 80.3788 90.633Z" fill="#928CD1" fill-opacity="0.525"/>
<path d="M80.3769 83.5979C81.6682 83.5979 82.7149 82.5511 82.7149 81.2599C82.7149 79.9686 81.6682 78.9219 80.3769 78.9219C79.0857 78.9219 78.0389 79.9686 78.0389 81.2599C78.0389 82.5511 79.0857 83.5979 80.3769 83.5979Z" fill="#928CD1" fill-opacity="0.525"/>
<path d="M80.3788 76.5668C81.792 76.5668 82.9376 75.4212 82.9376 74.008C82.9376 72.5948 81.792 71.4492 80.3788 71.4492C78.9657 71.4492 77.8201 72.5948 77.8201 74.008C77.8201 75.4212 78.9657 76.5668 80.3788 76.5668Z" fill="#928CD1" fill-opacity="0.525"/>
<path d="M73.2214 47.7755C74.7596 47.7755 76.0066 46.5285 76.0066 44.9903C76.0066 43.4521 74.7596 42.2051 73.2214 42.2051C71.6832 42.2051 70.4362 43.4521 70.4362 44.9903C70.4362 46.5285 71.6832 47.7755 73.2214 47.7755Z" fill="#928CD1" fill-opacity="0.525"/>
<path d="M80.3788 54.6388C81.9171 54.6388 83.164 53.3918 83.164 51.8536C83.164 50.3153 81.9171 49.0684 80.3788 49.0684C78.8406 49.0684 77.5936 50.3153 77.5936 51.8536C77.5936 53.3918 78.8406 54.6388 80.3788 54.6388Z" fill="#928CD1" fill-opacity="0.525"/>
<path d="M73.2214 54.6388C74.7596 54.6388 76.0066 53.3918 76.0066 51.8536C76.0066 50.3153 74.7596 49.0684 73.2214 49.0684C71.6832 49.0684 70.4362 50.3153 70.4362 51.8536C70.4362 53.3918 71.6832 54.6388 73.2214 54.6388Z" fill="#928CD1" fill-opacity="0.525"/>
<path d="M80.3789 61.5002C81.916 61.5002 83.1622 60.2541 83.1622 58.7169C83.1622 57.1797 81.916 55.9336 80.3789 55.9336C78.8417 55.9336 77.5955 57.1797 77.5955 58.7169C77.5955 60.2541 78.8417 61.5002 80.3789 61.5002Z" fill="#928CD1" fill-opacity="0.525"/>
<path d="M73.2214 61.5002C74.7586 61.5002 76.0047 60.2541 76.0047 58.7169C76.0047 57.1797 74.7586 55.9336 73.2214 55.9336C71.6842 55.9336 70.4381 57.1797 70.4381 58.7169C70.4381 60.2541 71.6842 61.5002 73.2214 61.5002Z" fill="#928CD1" fill-opacity="0.525"/>
<path d="M80.3789 68.9378C81.916 68.9378 83.1622 67.6916 83.1622 66.1544C83.1622 64.6172 81.916 63.3711 80.3789 63.3711C78.8417 63.3711 77.5955 64.6172 77.5955 66.1544C77.5955 67.6916 78.8417 68.9378 80.3789 68.9378Z" fill="#928CD1" fill-opacity="0.525"/>
<path d="M87.5438 2.89466C88.3431 2.89466 88.9911 2.24667 88.9911 1.44733C88.9911 0.647993 88.3431 0 87.5438 0C86.7444 0 86.0964 0.647993 86.0964 1.44733C86.0964 2.24667 86.7444 2.89466 87.5438 2.89466Z" fill="#928CD1" fill-opacity="0.525"/>
<path d="M87.5382 10.377C88.4615 10.377 89.21 9.62844 89.21 8.70509C89.21 7.78173 88.4615 7.0332 87.5382 7.0332C86.6148 7.0332 85.8663 7.78173 85.8663 8.70509C85.8663 9.62844 86.6148 10.377 87.5382 10.377Z" fill="#928CD1" fill-opacity="0.525"/>
<path d="M87.5287 17.8536C88.575 17.8536 89.4233 17.0053 89.4233 15.959C89.4233 14.9127 88.575 14.0645 87.5287 14.0645C86.4824 14.0645 85.6342 14.9127 85.6342 15.959C85.6342 17.0053 86.4824 17.8536 87.5287 17.8536Z" fill="#928CD1" fill-opacity="0.525"/>
<path d="M87.5212 25.3324C88.6884 25.3324 89.6346 24.3861 89.6346 23.2189C89.6346 22.0517 88.6884 21.1055 87.5212 21.1055C86.3539 21.1055 85.4077 22.0517 85.4077 23.2189C85.4077 24.3861 86.3539 25.3324 87.5212 25.3324Z" fill="#928CD1" fill-opacity="0.525"/>
<path d="M87.5136 32.7423C88.8059 32.7423 89.8535 31.6947 89.8535 30.4024C89.8535 29.1101 88.8059 28.0625 87.5136 28.0625C86.2213 28.0625 85.1737 29.1101 85.1737 30.4024C85.1737 31.6947 86.2213 32.7423 87.5136 32.7423Z" fill="#928CD1" fill-opacity="0.525"/>
<path d="M87.5042 40.2914C88.9173 40.2914 90.0629 39.1458 90.0629 37.7326C90.0629 36.3194 88.9173 35.1738 87.5042 35.1738C86.091 35.1738 84.9454 36.3194 84.9454 37.7326C84.9454 39.1458 86.091 40.2914 87.5042 40.2914Z" fill="#928CD1" fill-opacity="0.525"/>
<path d="M87.4985 47.7755C89.0368 47.7755 90.2838 46.5285 90.2838 44.9903C90.2838 43.4521 89.0368 42.2051 87.4985 42.2051C85.9603 42.2051 84.7133 43.4521 84.7133 44.9903C84.7133 46.5285 85.9603 47.7755 87.4985 47.7755Z" fill="#928CD1" fill-opacity="0.525"/>
<path d="M87.5438 111.613C88.3431 111.613 88.9911 110.965 88.9911 110.166C88.9911 109.367 88.3431 108.719 87.5438 108.719C86.7444 108.719 86.0964 109.367 86.0964 110.166C86.0964 110.965 86.7444 111.613 87.5438 111.613Z" fill="#928CD1" fill-opacity="0.525"/>
<path d="M87.5382 104.709C88.4615 104.709 89.21 103.96 89.21 103.037C89.21 102.114 88.4615 101.365 87.5382 101.365C86.6148 101.365 85.8663 102.114 85.8663 103.037C85.8663 103.96 86.6148 104.709 87.5382 104.709Z" fill="#928CD1" fill-opacity="0.525"/>
<path d="M87.5287 97.6681C88.574 97.6681 89.4213 96.8208 89.4213 95.7755C89.4213 94.7302 88.574 93.8828 87.5287 93.8828C86.4834 93.8828 85.636 94.7302 85.636 95.7755C85.636 96.8208 86.4834 97.6681 87.5287 97.6681Z" fill="#928CD1" fill-opacity="0.525"/>
<path d="M87.5211 90.633C88.6894 90.633 89.6364 89.6859 89.6364 88.5177C89.6364 87.3494 88.6894 86.4023 87.5211 86.4023C86.3528 86.4023 85.4058 87.3494 85.4058 88.5177C85.4058 89.6859 86.3528 90.633 87.5211 90.633Z" fill="#928CD1" fill-opacity="0.525"/>
<path d="M87.5136 83.5979C88.8049 83.5979 89.8516 82.5511 89.8516 81.2599C89.8516 79.9686 88.8049 78.9219 87.5136 78.9219C86.2224 78.9219 85.1756 79.9686 85.1756 81.2599C85.1756 82.5511 86.2224 83.5979 87.5136 83.5979Z" fill="#928CD1" fill-opacity="0.525"/>
<path d="M87.5042 76.5668C88.9173 76.5668 90.0629 75.4212 90.0629 74.008C90.0629 72.5948 88.9173 71.4492 87.5042 71.4492C86.091 71.4492 84.9454 72.5948 84.9454 74.008C84.9454 75.4212 86.091 76.5668 87.5042 76.5668Z" fill="#928CD1" fill-opacity="0.525"/>
<path d="M87.4985 54.6388C89.0368 54.6388 90.2838 53.3918 90.2838 51.8536C90.2838 50.3153 89.0368 49.0684 87.4985 49.0684C85.9603 49.0684 84.7133 50.3153 84.7133 51.8536C84.7133 53.3918 85.9603 54.6388 87.4985 54.6388Z" fill="#928CD1" fill-opacity="0.525"/>
<path d="M87.4985 61.5002C89.0357 61.5002 90.2818 60.2541 90.2818 58.7169C90.2818 57.1797 89.0357 55.9336 87.4985 55.9336C85.9613 55.9336 84.7152 57.1797 84.7152 58.7169C84.7152 60.2541 85.9613 61.5002 87.4985 61.5002Z" fill="#928CD1" fill-opacity="0.525"/>
<path d="M87.4985 68.9378C89.0357 68.9378 90.2818 67.6916 90.2818 66.1544C90.2818 64.6172 89.0357 63.3711 87.4985 63.3711C85.9613 63.3711 84.7152 64.6172 84.7152 66.1544C84.7152 67.6916 85.9613 68.9378 87.4985 68.9378Z" fill="#928CD1" fill-opacity="0.525"/>
<path d="M94.971 104.709C95.8944 104.709 96.6429 103.96 96.6429 103.037C96.6429 102.114 95.8944 101.365 94.971 101.365C94.0477 101.365 93.2991 102.114 93.2991 103.037C93.2991 103.96 94.0477 104.709 94.971 104.709Z" fill="#928CD1" fill-opacity="0.525"/>
<path d="M94.9616 97.6681C96.0069 97.6681 96.8543 96.8208 96.8543 95.7755C96.8543 94.7302 96.0069 93.8828 94.9616 93.8828C93.9163 93.8828 93.069 94.7302 93.069 95.7755C93.069 96.8208 93.9163 97.6681 94.9616 97.6681Z" fill="#928CD1" fill-opacity="0.525"/>
<path d="M94.9559 90.633C96.1242 90.633 97.0712 89.6859 97.0712 88.5177C97.0712 87.3494 96.1242 86.4023 94.9559 86.4023C93.7876 86.4023 92.8406 87.3494 92.8406 88.5177C92.8406 89.6859 93.7876 90.633 94.9559 90.633Z" fill="#928CD1" fill-opacity="0.525"/>
<path d="M94.9522 83.5979C96.2434 83.5979 97.2902 82.5511 97.2902 81.2599C97.2902 79.9686 96.2434 78.9219 94.9522 78.9219C93.661 78.9219 92.6142 79.9686 92.6142 81.2599C92.6142 82.5511 93.661 83.5979 94.9522 83.5979Z" fill="#928CD1" fill-opacity="0.525"/>
<path d="M102.102 54.4278C103.394 54.4278 104.442 53.3802 104.442 52.0879C104.442 50.7956 103.394 49.748 102.102 49.748C100.81 49.748 99.7622 50.7956 99.7622 52.0879C99.7622 53.3802 100.81 54.4278 102.102 54.4278Z" fill="#928CD1" fill-opacity="0.525"/>
<path d="M109.341 54.2472C110.533 54.2472 111.499 53.2807 111.499 52.0884C111.499 50.8962 110.533 49.9297 109.341 49.9297C108.148 49.9297 107.182 50.8962 107.182 52.0884C107.182 53.2807 108.148 54.2472 109.341 54.2472Z" fill="#928CD1" fill-opacity="0.525"/>
<path d="M116.583 54.0703C117.676 54.0703 118.562 53.184 118.562 52.0908C118.562 50.9976 117.676 50.1113 116.583 50.1113C115.49 50.1113 114.603 50.9976 114.603 52.0908C114.603 53.184 115.49 54.0703 116.583 54.0703Z" fill="#928CD1" fill-opacity="0.525"/>
<path d="M123.825 53.8895C124.819 53.8895 125.625 53.0835 125.625 52.0893C125.625 51.095 124.819 50.2891 123.825 50.2891C122.831 50.2891 122.025 51.095 122.025 52.0893C122.025 53.0835 122.831 53.8895 123.825 53.8895Z" fill="#928CD1" fill-opacity="0.525"/>
<path d="M131.068 53.7106C131.963 53.7106 132.688 52.9849 132.688 52.0897C132.688 51.1945 131.963 50.4688 131.068 50.4688C130.172 50.4688 129.447 51.1945 129.447 52.0897C129.447 52.9849 130.172 53.7106 131.068 53.7106Z" fill="#928CD1" fill-opacity="0.525"/>
<path d="M138.31 53.528C139.105 53.528 139.75 52.8834 139.75 52.0882C139.75 51.2931 139.105 50.6484 138.31 50.6484C137.515 50.6484 136.87 51.2931 136.87 52.0882C136.87 52.8834 137.515 53.528 138.31 53.528Z" fill="#928CD1" fill-opacity="0.525"/>
<path d="M145.55 53.3492C146.246 53.3492 146.811 52.7848 146.811 52.0886C146.811 51.3925 146.246 50.8281 145.55 50.8281C144.854 50.8281 144.29 51.3925 144.29 52.0886C144.29 52.7848 144.854 53.3492 145.55 53.3492Z" fill="#928CD1" fill-opacity="0.525"/>
<path d="M152.793 53.1703C153.39 53.1703 153.874 52.6862 153.874 52.0891C153.874 51.4919 153.39 51.0078 152.793 51.0078C152.195 51.0078 151.711 51.4919 151.711 52.0891C151.711 52.6862 152.195 53.1703 152.793 53.1703Z" fill="#928CD1" fill-opacity="0.525"/>
<path d="M160.035 52.9933C160.534 52.9933 160.939 52.5886 160.939 52.0894C160.939 51.5902 160.534 51.1855 160.035 51.1855C159.536 51.1855 159.131 51.5902 159.131 52.0894C159.131 52.5886 159.536 52.9933 160.035 52.9933Z" fill="#928CD1" fill-opacity="0.525"/>
<path d="M167.277 52.8126C167.676 52.8126 168 52.4891 168 52.0899C168 51.6908 167.676 51.3672 167.277 51.3672C166.878 51.3672 166.555 51.6908 166.555 52.0899C166.555 52.4891 166.878 52.8126 167.277 52.8126Z" fill="#928CD1" fill-opacity="0.525"/>
<path d="M59.1274 56.9824C60.4181 56.9824 61.4654 58.0259 61.4654 59.3185C61.4654 60.6111 60.4162 61.6584 59.1274 61.6584C57.8386 61.6584 56.7913 60.6111 56.7913 59.3185C56.7913 58.0335 57.8386 56.9824 59.1274 56.9824Z" fill="#928CD1" fill-opacity="0.525"/>
<path d="M51.8869 61.4776C53.0792 61.4776 54.0457 60.5111 54.0457 59.3189C54.0457 58.1267 53.0792 57.1602 51.8869 57.1602C50.6947 57.1602 49.7282 58.1267 49.7282 59.3189C49.7282 60.5111 50.6947 61.4776 51.8869 61.4776Z" fill="#928CD1" fill-opacity="0.525"/>
<path d="M44.3672 60.7603C45.1635 60.7603 45.8089 60.1148 45.8089 59.3186C45.8089 58.5224 45.1635 57.877 44.3672 57.877C43.571 57.877 42.9256 58.5224 42.9256 59.3186C42.9256 60.1148 43.571 60.7603 44.3672 60.7603Z" fill="#928CD1" fill-opacity="0.525"/>
<path d="M37.1268 60.5796C37.823 60.5796 38.3873 60.0153 38.3873 59.3191C38.3873 58.6229 37.823 58.0586 37.1268 58.0586C36.4306 58.0586 35.8663 58.6229 35.8663 59.3191C35.8663 60.0153 36.4306 60.5796 37.1268 60.5796Z" fill="#928CD1" fill-opacity="0.525"/>
<path d="M29.8845 60.4008C30.4816 60.4008 30.9657 59.9167 30.9657 59.3195C30.9657 58.7224 30.4816 58.2383 29.8845 58.2383C29.2873 58.2383 28.8032 58.7224 28.8032 59.3195C28.8032 59.9167 29.2873 60.4008 29.8845 60.4008Z" fill="#928CD1" fill-opacity="0.525"/>
<path d="M22.6422 60.2238C23.1414 60.2238 23.546 59.8191 23.546 59.3199C23.546 58.8207 23.1414 58.416 22.6422 58.416C22.143 58.416 21.7383 58.8207 21.7383 59.3199C21.7383 59.8191 22.143 60.2238 22.6422 60.2238Z" fill="#928CD1" fill-opacity="0.525"/>
<path d="M15.4017 60.0431C15.8009 60.0431 16.1244 59.7195 16.1244 59.3204C16.1244 58.9212 15.8009 58.5977 15.4017 58.5977C15.0026 58.5977 14.679 58.9212 14.679 59.3204C14.679 59.7195 15.0026 60.0431 15.4017 60.0431Z" fill="#928CD1" fill-opacity="0.525"/>
<path d="M102.191 68.5479C103.383 68.5479 104.349 67.5814 104.349 66.3892C104.349 65.197 103.383 64.2305 102.191 64.2305C100.998 64.2305 100.032 65.197 100.032 66.3892C100.032 67.5814 100.998 68.5479 102.191 68.5479Z" fill="#928CD1" fill-opacity="0.525"/>
<path d="M109.433 68.3671C110.526 68.3671 111.412 67.4809 111.412 66.3877C111.412 65.2944 110.526 64.4082 109.433 64.4082C108.34 64.4082 107.454 65.2944 107.454 66.3877C107.454 67.4809 108.34 68.3671 109.433 68.3671Z" fill="#928CD1" fill-opacity="0.525"/>
<path d="M116.675 68.1845C117.669 68.1845 118.474 67.3794 118.474 66.3862C118.474 65.393 117.669 64.5879 116.675 64.5879C115.682 64.5879 114.877 65.393 114.877 66.3862C114.877 67.3794 115.682 68.1845 116.675 68.1845Z" fill="#928CD1" fill-opacity="0.525"/>
<path d="M123.918 68.0057C124.812 68.0057 125.537 67.2808 125.537 66.3866C125.537 65.4924 124.812 64.7676 123.918 64.7676C123.023 64.7676 122.299 65.4924 122.299 66.3866C122.299 67.2808 123.023 68.0057 123.918 68.0057Z" fill="#928CD1" fill-opacity="0.525"/>
<path d="M131.158 67.8288C131.953 67.8288 132.598 67.1842 132.598 66.389C132.598 65.5938 131.953 64.9492 131.158 64.9492C130.363 64.9492 129.718 65.5938 129.718 66.389C129.718 67.1842 130.363 67.8288 131.158 67.8288Z" fill="#928CD1" fill-opacity="0.525"/>
<path d="M138.4 67.6518C139.098 67.6518 139.663 67.0866 139.663 66.3894C139.663 65.6921 139.098 65.127 138.4 65.127C137.703 65.127 137.138 65.6921 137.138 66.3894C137.138 67.0866 137.703 67.6518 138.4 67.6518Z" fill="#928CD1" fill-opacity="0.525"/>
<path d="M145.643 67.4693C146.239 67.4693 146.722 66.986 146.722 66.3899C146.722 65.7938 146.239 65.3105 145.643 65.3105C145.047 65.3105 144.563 65.7938 144.563 66.3899C144.563 66.986 145.047 67.4693 145.643 67.4693Z" fill="#928CD1" fill-opacity="0.525"/>
<path d="M152.885 67.2941C153.384 67.2941 153.789 66.8894 153.789 66.3902C153.789 65.891 153.384 65.4863 152.885 65.4863C152.386 65.4863 151.981 65.891 151.981 66.3902C151.981 66.8894 152.386 67.2941 152.885 67.2941Z" fill="#928CD1" fill-opacity="0.525"/>
<path d="M160.125 67.1115C160.525 67.1115 160.848 66.7879 160.848 66.3887C160.848 65.9896 160.525 65.666 160.125 65.666C159.726 65.666 159.403 65.9896 159.403 66.3887C159.403 66.7879 159.726 67.1115 160.125 67.1115Z" fill="#928CD1" fill-opacity="0.525"/>
<path d="M102.191 75.4132C103.383 75.4132 104.349 74.4467 104.349 73.2544C104.349 72.0622 103.383 71.0957 102.191 71.0957C100.998 71.0957 100.032 72.0622 100.032 73.2544C100.032 74.4467 100.998 75.4132 102.191 75.4132Z" fill="#928CD1" fill-opacity="0.525"/>
<path d="M109.433 75.2324C110.526 75.2324 111.412 74.3461 111.412 73.2529C111.412 72.1597 110.526 71.2734 109.433 71.2734C108.34 71.2734 107.454 72.1597 107.454 73.2529C107.454 74.3461 108.34 75.2324 109.433 75.2324Z" fill="#928CD1" fill-opacity="0.525"/>
<path d="M116.675 75.0537C117.669 75.0537 118.474 74.2485 118.474 73.2553C118.474 72.2622 117.669 71.457 116.675 71.457C115.682 71.457 114.877 72.2622 114.877 73.2553C114.877 74.2485 115.682 75.0537 116.675 75.0537Z" fill="#928CD1" fill-opacity="0.525"/>
<path d="M125.539 73.2557C125.539 74.1482 124.814 74.8729 123.918 74.8729C123.023 74.8729 122.301 74.1464 122.301 73.2557C122.301 72.3556 123.025 71.6348 123.918 71.6348C124.814 71.6348 125.539 72.3575 125.539 73.2557Z" fill="#928CD1" fill-opacity="0.525"/>
<path d="M131.158 74.696C131.953 74.696 132.598 74.0514 132.598 73.2562C132.598 72.461 131.953 71.8164 131.158 71.8164C130.363 71.8164 129.718 72.461 129.718 73.2562C129.718 74.0514 130.363 74.696 131.158 74.696Z" fill="#928CD1" fill-opacity="0.525"/>
<path d="M138.4 74.517C139.098 74.517 139.663 73.9518 139.663 73.2546C139.663 72.5574 139.098 71.9922 138.4 71.9922C137.703 71.9922 137.138 72.5574 137.138 73.2546C137.138 73.9518 137.703 74.517 138.4 74.517Z" fill="#928CD1" fill-opacity="0.525"/>
<path d="M145.643 74.3326C146.239 74.3326 146.722 73.8493 146.722 73.2532C146.722 72.6571 146.239 72.1738 145.643 72.1738C145.047 72.1738 144.563 72.6571 144.563 73.2532C144.563 73.8493 145.047 74.3326 145.643 74.3326Z" fill="#928CD1" fill-opacity="0.525"/>
<path d="M152.885 74.1593C153.384 74.1593 153.789 73.7546 153.789 73.2554C153.789 72.7562 153.384 72.3516 152.885 72.3516C152.386 72.3516 151.981 72.7562 151.981 73.2554C151.981 73.7546 152.386 74.1593 152.885 74.1593Z" fill="#928CD1" fill-opacity="0.525"/>
<path d="M160.125 73.9787C160.525 73.9787 160.848 73.6551 160.848 73.2559C160.848 72.8568 160.525 72.5332 160.125 72.5332C159.726 72.5332 159.403 72.8568 159.403 73.2559C159.403 73.6551 159.726 73.9787 160.125 73.9787Z" fill="#928CD1" fill-opacity="0.525"/>
<path d="M102.366 82.5249C103.062 82.5249 103.627 81.9606 103.627 81.2644C103.627 80.5683 103.062 80.0039 102.366 80.0039C101.67 80.0039 101.106 80.5683 101.106 81.2644C101.106 81.9606 101.67 82.5249 102.366 82.5249Z" fill="#928CD1" fill-opacity="0.525"/>
<path d="M109.607 82.3442C110.204 82.3442 110.688 81.86 110.688 81.2629C110.688 80.6657 110.204 80.1816 109.607 80.1816C109.009 80.1816 108.525 80.6657 108.525 81.2629C108.525 81.86 109.009 82.3442 109.607 82.3442Z" fill="#928CD1" fill-opacity="0.525"/>
<path d="M116.849 82.1654C117.346 82.1654 117.749 81.7624 117.749 81.2653C117.749 80.7682 117.346 80.3652 116.849 80.3652C116.352 80.3652 115.949 80.7682 115.949 81.2653C115.949 81.7624 116.352 82.1654 116.849 82.1654Z" fill="#928CD1" fill-opacity="0.525"/>
<path d="M124.093 81.9883C124.493 81.9883 124.818 81.6639 124.818 81.2637C124.818 80.8635 124.493 80.5391 124.093 80.5391C123.693 80.5391 123.369 80.8635 123.369 81.2637C123.369 81.6639 123.693 81.9883 124.093 81.9883Z" fill="#928CD1" fill-opacity="0.525"/>
<path d="M102.366 89.9605C103.062 89.9605 103.627 89.3961 103.627 88.7C103.627 88.0038 103.062 87.4395 102.366 87.4395C101.67 87.4395 101.106 88.0038 101.106 88.7C101.106 89.3961 101.67 89.9605 102.366 89.9605Z" fill="#928CD1" fill-opacity="0.525"/>
<path d="M109.607 89.7816C110.204 89.7816 110.688 89.2975 110.688 88.7004C110.688 88.1032 110.204 87.6191 109.607 87.6191C109.009 87.6191 108.525 88.1032 108.525 88.7004C108.525 89.2975 109.009 89.7816 109.607 89.7816Z" fill="#928CD1" fill-opacity="0.525"/>
<path d="M116.849 89.599C117.346 89.599 117.749 89.196 117.749 88.6989C117.749 88.2018 117.346 87.7988 116.849 87.7988C116.352 87.7988 115.949 88.2018 115.949 88.6989C115.949 89.196 116.352 89.599 116.849 89.599Z" fill="#928CD1" fill-opacity="0.525"/>
<path d="M124.093 89.4202C124.491 89.4202 124.814 89.0975 124.814 88.6993C124.814 88.3012 124.491 87.9785 124.093 87.9785C123.695 87.9785 123.372 88.3012 123.372 88.6993C123.372 89.0975 123.695 89.4202 124.093 89.4202Z" fill="#928CD1" fill-opacity="0.525"/>
<path d="M102.366 97.1089C103.062 97.1089 103.627 96.5446 103.627 95.8484C103.627 95.1522 103.062 94.5879 102.366 94.5879C101.67 94.5879 101.106 95.1522 101.106 95.8484C101.106 96.5446 101.67 97.1089 102.366 97.1089Z" fill="#928CD1" fill-opacity="0.525"/>
<path d="M109.607 96.9301C110.204 96.9301 110.688 96.446 110.688 95.8488C110.688 95.2517 110.204 94.7676 109.607 94.7676C109.009 94.7676 108.525 95.2517 108.525 95.8488C108.525 96.446 109.009 96.9301 109.607 96.9301Z" fill="#928CD1" fill-opacity="0.525"/>
<path d="M116.849 96.7494C117.346 96.7494 117.749 96.3464 117.749 95.8493C117.749 95.3522 117.346 94.9492 116.849 94.9492C116.352 94.9492 115.949 95.3522 115.949 95.8493C115.949 96.3464 116.352 96.7494 116.849 96.7494Z" fill="#928CD1" fill-opacity="0.525"/>
<path d="M124.093 96.5725C124.491 96.5725 124.814 96.2498 124.814 95.8517C124.814 95.4536 124.491 95.1309 124.093 95.1309C123.695 95.1309 123.372 95.4536 123.372 95.8517C123.372 96.2498 123.695 96.5725 124.093 96.5725Z" fill="#928CD1" fill-opacity="0.525"/>
<path d="M103.627 102.995C103.627 103.691 103.061 104.259 102.364 104.259C101.668 104.259 101.104 103.691 101.104 102.995C101.104 102.302 101.668 101.738 102.364 101.738C103.061 101.738 103.627 102.302 103.627 102.995Z" fill="#928CD1" fill-opacity="0.525"/>
<path d="M110.686 102.996C110.686 103.596 110.205 104.082 109.607 104.082C109.01 104.082 108.525 103.596 108.525 102.996C108.525 102.403 109.01 101.92 109.607 101.92C110.207 101.92 110.686 102.401 110.686 102.996Z" fill="#928CD1" fill-opacity="0.525"/>
<path d="M117.749 102.994C117.749 103.492 117.349 103.9 116.847 103.9C116.351 103.9 115.947 103.49 115.947 102.994C115.947 102.499 116.351 102.094 116.847 102.094C117.349 102.094 117.749 102.499 117.749 102.994Z" fill="#928CD1" fill-opacity="0.525"/>
<path d="M66.1112 111.613C66.9105 111.613 67.5585 110.965 67.5585 110.166C67.5585 109.367 66.9105 108.719 66.1112 108.719C65.3119 108.719 64.6639 109.367 64.6639 110.166C64.6639 110.965 65.3119 111.613 66.1112 111.613Z" fill="#928CD1" fill-opacity="0.525"/>
<path d="M58.6858 111.248C59.283 111.248 59.7671 110.764 59.7671 110.167C59.7671 109.57 59.283 109.086 58.6858 109.086C58.0887 109.086 57.6046 109.57 57.6046 110.167C57.6046 110.764 58.0887 111.248 58.6858 111.248Z" fill="#928CD1" fill-opacity="0.525"/>
<path d="M51.4454 111.07C51.9436 111.07 52.3474 110.666 52.3474 110.168C52.3474 109.669 51.9436 109.266 51.4454 109.266C50.9473 109.266 50.5434 109.669 50.5434 110.168C50.5434 110.666 50.9473 111.07 51.4454 111.07Z" fill="#928CD1" fill-opacity="0.525"/>
<path d="M44.2049 110.889C44.6041 110.889 44.9277 110.565 44.9277 110.166C44.9277 109.767 44.6041 109.443 44.2049 109.443C43.8058 109.443 43.4822 109.767 43.4822 110.166C43.4822 110.565 43.8058 110.889 44.2049 110.889Z" fill="#928CD1" fill-opacity="0.525"/>
<path d="M102.102 61.2912C103.393 61.2912 104.44 60.2445 104.44 58.9532C104.44 57.662 103.393 56.6152 102.102 56.6152C100.811 56.6152 99.764 57.662 99.764 58.9532C99.764 60.2445 100.811 61.2912 102.102 61.2912Z" fill="#928CD1" fill-opacity="0.525"/>
<path d="M109.341 61.1143C110.533 61.1143 111.499 60.1478 111.499 58.9556C111.499 57.7634 110.533 56.7969 109.341 56.7969C108.148 56.7969 107.182 57.7634 107.182 58.9556C107.182 60.1478 108.148 61.1143 109.341 61.1143Z" fill="#928CD1" fill-opacity="0.525"/>
<path d="M116.583 60.9355C117.676 60.9355 118.562 60.0493 118.562 58.956C118.562 57.8628 117.676 56.9766 116.583 56.9766C115.49 56.9766 114.603 57.8628 114.603 58.956C114.603 60.0493 115.49 60.9355 116.583 60.9355Z" fill="#928CD1" fill-opacity="0.525"/>
<path d="M123.825 60.7567C124.819 60.7567 125.625 59.9507 125.625 58.9564C125.625 57.9622 124.819 57.1562 123.825 57.1562C122.831 57.1562 122.025 57.9622 122.025 58.9564C122.025 59.9507 122.831 60.7567 123.825 60.7567Z" fill="#928CD1" fill-opacity="0.525"/>
<path d="M131.068 60.5759C131.963 60.5759 132.688 59.8501 132.688 58.9549C132.688 58.0597 131.963 57.334 131.068 57.334C130.172 57.334 129.447 58.0597 129.447 58.9549C129.447 59.8501 130.172 60.5759 131.068 60.5759Z" fill="#928CD1" fill-opacity="0.525"/>
<path d="M138.31 60.3932C139.105 60.3932 139.75 59.7486 139.75 58.9535C139.75 58.1583 139.105 57.5137 138.31 57.5137C137.515 57.5137 136.87 58.1583 136.87 58.9535C136.87 59.7486 137.515 60.3932 138.31 60.3932Z" fill="#928CD1" fill-opacity="0.525"/>
<path d="M145.55 60.2163C146.246 60.2163 146.811 59.652 146.811 58.9558C146.811 58.2597 146.246 57.6953 145.55 57.6953C144.854 57.6953 144.29 58.2597 144.29 58.9558C144.29 59.652 144.854 60.2163 145.55 60.2163Z" fill="#928CD1" fill-opacity="0.525"/>
<path d="M152.793 60.0375C153.39 60.0375 153.874 59.5534 153.874 58.9562C153.874 58.3591 153.39 57.875 152.793 57.875C152.195 57.875 151.711 58.3591 151.711 58.9562C151.711 59.5534 152.195 60.0375 152.793 60.0375Z" fill="#928CD1" fill-opacity="0.525"/>
<path d="M160.035 59.8605C160.534 59.8605 160.939 59.4558 160.939 58.9566C160.939 58.4574 160.534 58.0527 160.035 58.0527C159.536 58.0527 159.131 58.4574 159.131 58.9566C159.131 59.4558 159.536 59.8605 160.035 59.8605Z" fill="#928CD1" fill-opacity="0.525"/>
<path d="M94.9409 76.5668C96.354 76.5668 97.4996 75.4212 97.4996 74.008C97.4996 72.5948 96.354 71.4492 94.9409 71.4492C93.5277 71.4492 92.3821 72.5948 92.3821 74.008C92.3821 75.4212 93.5277 76.5668 94.9409 76.5668Z" fill="#928CD1" fill-opacity="0.525"/>
<path d="M94.9352 54.6388C96.4734 54.6388 97.7204 53.3918 97.7204 51.8536C97.7204 50.3153 96.4734 49.0684 94.9352 49.0684C93.397 49.0684 92.15 50.3153 92.15 51.8536C92.15 53.3918 93.397 54.6388 94.9352 54.6388Z" fill="#928CD1" fill-opacity="0.525"/>
<path d="M102.102 47.2776C103.393 47.2776 104.44 46.2308 104.44 44.9396C104.44 43.6483 103.393 42.6016 102.102 42.6016C100.811 42.6016 99.764 43.6483 99.764 44.9396C99.764 46.2308 100.811 47.2776 102.102 47.2776Z" fill="#928CD1" fill-opacity="0.525"/>
<path d="M109.341 47.0987C110.533 47.0987 111.499 46.1322 111.499 44.94C111.499 43.7477 110.533 42.7812 109.341 42.7812C108.148 42.7812 107.182 43.7477 107.182 44.94C107.182 46.1322 108.148 47.0987 109.341 47.0987Z" fill="#928CD1" fill-opacity="0.525"/>
<path d="M116.583 46.9199C117.676 46.9199 118.562 46.0336 118.562 44.9404C118.562 43.8472 117.676 42.9609 116.583 42.9609C115.49 42.9609 114.603 43.8472 114.603 44.9404C114.603 46.0336 115.49 46.9199 116.583 46.9199Z" fill="#928CD1" fill-opacity="0.525"/>
<path d="M123.825 46.7391C124.819 46.7391 125.625 45.9331 125.625 44.9389C125.625 43.9447 124.819 43.1387 123.825 43.1387C122.831 43.1387 122.025 43.9447 122.025 44.9389C122.025 45.9331 122.831 46.7391 123.825 46.7391Z" fill="#928CD1" fill-opacity="0.525"/>
<path d="M131.068 46.5602C131.963 46.5602 132.688 45.8345 132.688 44.9393C132.688 44.0441 131.963 43.3184 131.068 43.3184C130.172 43.3184 129.447 44.0441 129.447 44.9393C129.447 45.8345 130.172 46.5602 131.068 46.5602Z" fill="#928CD1" fill-opacity="0.525"/>
<path d="M138.31 46.3796C139.105 46.3796 139.75 45.735 139.75 44.9398C139.75 44.1446 139.105 43.5 138.31 43.5C137.515 43.5 136.87 44.1446 136.87 44.9398C136.87 45.735 137.515 46.3796 138.31 46.3796Z" fill="#928CD1" fill-opacity="0.525"/>
<path d="M146.811 44.9383C146.811 45.6346 146.247 46.2025 145.552 46.2025C144.856 46.2025 144.29 45.6346 144.29 44.9383C144.29 44.2457 144.856 43.6777 145.552 43.6777C146.247 43.6777 146.811 44.2457 146.811 44.9383Z" fill="#928CD1" fill-opacity="0.525"/>
<path d="M152.793 46.0199C153.39 46.0199 153.874 45.5358 153.874 44.9387C153.874 44.3415 153.39 43.8574 152.793 43.8574C152.195 43.8574 151.711 44.3415 151.711 44.9387C151.711 45.5358 152.195 46.0199 152.793 46.0199Z" fill="#928CD1" fill-opacity="0.525"/>
<path d="M160.035 45.8449C160.534 45.8449 160.939 45.4402 160.939 44.941C160.939 44.4418 160.534 44.0371 160.035 44.0371C159.536 44.0371 159.131 44.4418 159.131 44.941C159.131 45.4402 159.536 45.8449 160.035 45.8449Z" fill="#928CD1" fill-opacity="0.525"/>
<path d="M167.277 45.6622C167.676 45.6622 168 45.3387 168 44.9395C168 44.5404 167.676 44.2168 167.277 44.2168C166.878 44.2168 166.555 44.5404 166.555 44.9395C166.555 45.3387 166.878 45.6622 167.277 45.6622Z" fill="#928CD1" fill-opacity="0.525"/>
<path d="M58.95 46.4578C59.9442 46.4578 60.7502 45.6518 60.7502 44.6576C60.7502 43.6634 59.9442 42.8574 58.95 42.8574C57.9558 42.8574 57.1498 43.6634 57.1498 44.6576C57.1498 45.6518 57.9558 46.4578 58.95 46.4578Z" fill="#928CD1" fill-opacity="0.525"/>
<path d="M51.7096 46.2772C52.6038 46.2772 53.3286 45.5523 53.3286 44.6581C53.3286 43.7639 52.6038 43.0391 51.7096 43.0391C50.8154 43.0391 50.0905 43.7639 50.0905 44.6581C50.0905 45.5523 50.8154 46.2772 51.7096 46.2772Z" fill="#928CD1" fill-opacity="0.525"/>
<path d="M44.4673 46.0982C45.2635 46.0982 45.9089 45.4527 45.9089 44.6565C45.9089 43.8603 45.2635 43.2148 44.4673 43.2148C43.6711 43.2148 43.0256 43.8603 43.0256 44.6565C43.0256 45.4527 43.6711 46.0982 44.4673 46.0982Z" fill="#928CD1" fill-opacity="0.525"/>
<path d="M37.2249 45.9156C37.9211 45.9156 38.4855 45.3512 38.4855 44.655C38.4855 43.9589 37.9211 43.3945 37.2249 43.3945C36.5288 43.3945 35.9644 43.9589 35.9644 44.655C35.9644 45.3512 36.5288 45.9156 37.2249 45.9156Z" fill="#928CD1" fill-opacity="0.525"/>
<path d="M29.9826 45.7367C30.5798 45.7367 31.0639 45.2526 31.0639 44.6555C31.0639 44.0583 30.5798 43.5742 29.9826 43.5742C29.3855 43.5742 28.9014 44.0583 28.9014 44.6555C28.9014 45.2526 29.3855 45.7367 29.9826 45.7367Z" fill="#928CD1" fill-opacity="0.525"/>
<path d="M22.7403 45.5579C23.2384 45.5579 23.6423 45.154 23.6423 44.6559C23.6423 44.1577 23.2384 43.7539 22.7403 43.7539C22.2421 43.7539 21.8383 44.1577 21.8383 44.6559C21.8383 45.154 22.2421 45.5579 22.7403 45.5579Z" fill="#928CD1" fill-opacity="0.525"/>
<path d="M15.4979 45.3753C15.896 45.3753 16.2188 45.0525 16.2188 44.6544C16.2188 44.2563 15.896 43.9336 15.4979 43.9336C15.0998 43.9336 14.7771 44.2563 14.7771 44.6544C14.7771 45.0525 15.0998 45.3753 15.4979 45.3753Z" fill="#928CD1" fill-opacity="0.525"/>
<path d="M58.8122 16.8518C59.4104 16.8518 59.8954 16.3669 59.8954 15.7687C59.8954 15.1705 59.4104 14.6855 58.8122 14.6855C58.214 14.6855 57.7291 15.1705 57.7291 15.7687C57.7291 16.3669 58.214 16.8518 58.8122 16.8518Z" fill="#928CD1" fill-opacity="0.525"/>
<path d="M51.568 16.673C52.0672 16.673 52.4719 16.2683 52.4719 15.7691C52.4719 15.2699 52.0672 14.8652 51.568 14.8652C51.0688 14.8652 50.6642 15.2699 50.6642 15.7691C50.6642 16.2683 51.0688 16.673 51.568 16.673Z" fill="#928CD1" fill-opacity="0.525"/>
<path d="M44.3276 16.4884C44.7268 16.4884 45.0504 16.1648 45.0504 15.7657C45.0504 15.3665 44.7268 15.043 44.3276 15.043C43.9285 15.043 43.6049 15.3665 43.6049 15.7657C43.6049 16.1648 43.9285 16.4884 44.3276 16.4884Z" fill="#928CD1" fill-opacity="0.525"/>
<path d="M58.8123 24.5065C59.5303 24.5065 60.1124 23.9244 60.1124 23.2064C60.1124 22.4883 59.5303 21.9062 58.8123 21.9062C58.0942 21.9062 57.5121 22.4883 57.5121 23.2064C57.5121 23.9244 58.0942 24.5065 58.8123 24.5065Z" fill="#928CD1" fill-opacity="0.525"/>
<path d="M51.568 24.1085C52.0672 24.1085 52.4719 23.7039 52.4719 23.2047C52.4719 22.7055 52.0672 22.3008 51.568 22.3008C51.0688 22.3008 50.6642 22.7055 50.6642 23.2047C50.6642 23.7039 51.0688 24.1085 51.568 24.1085Z" fill="#928CD1" fill-opacity="0.525"/>
<path d="M44.3276 23.9279C44.7268 23.9279 45.0504 23.6043 45.0504 23.2051C45.0504 22.806 44.7268 22.4824 44.3276 22.4824C43.9285 22.4824 43.6049 22.806 43.6049 23.2051C43.6049 23.6043 43.9285 23.9279 44.3276 23.9279Z" fill="#928CD1" fill-opacity="0.525"/>
<path d="M58.9915 9.80788C59.4897 9.80788 59.8935 9.40405 59.8935 8.9059C59.8935 8.40774 59.4897 8.00391 58.9915 8.00391C58.4934 8.00391 58.0895 8.40774 58.0895 8.9059C58.0895 9.40405 58.4934 9.80788 58.9915 9.80788Z" fill="#928CD1" fill-opacity="0.525"/>
<path d="M94.9522 40.1291C93.6577 40.1291 92.6123 39.0818 92.6123 37.7892C92.6123 36.5023 93.6596 35.4531 94.9522 35.4531C96.241 35.4531 97.2864 36.5042 97.2864 37.7892C97.2864 39.0837 96.2391 40.1291 94.9522 40.1291Z" fill="#928CD1" fill-opacity="0.525"/>
<path d="M102.191 39.9483C103.383 39.9483 104.349 38.9818 104.349 37.7896C104.349 36.5974 103.383 35.6309 102.191 35.6309C100.998 35.6309 100.032 36.5974 100.032 37.7896C100.032 38.9818 100.998 39.9483 102.191 39.9483Z" fill="#928CD1" fill-opacity="0.525"/>
<path d="M109.433 39.7675C110.526 39.7675 111.412 38.8813 111.412 37.7881C111.412 36.6948 110.526 35.8086 109.433 35.8086C108.34 35.8086 107.454 36.6948 107.454 37.7881C107.454 38.8813 108.34 39.7675 109.433 39.7675Z" fill="#928CD1" fill-opacity="0.525"/>
<path d="M94.9522 32.7423C96.2444 32.7423 97.292 31.6947 97.292 30.4024C97.292 29.1101 96.2444 28.0625 94.9522 28.0625C93.6599 28.0625 92.6123 29.1101 92.6123 30.4024C92.6123 31.6947 93.6599 32.7423 94.9522 32.7423Z" fill="#928CD1" fill-opacity="0.525"/>
<path d="M102.191 32.5616C103.383 32.5616 104.349 31.5951 104.349 30.4029C104.349 29.2106 103.383 28.2441 102.191 28.2441C100.998 28.2441 100.032 29.2106 100.032 30.4029C100.032 31.5951 100.998 32.5616 102.191 32.5616Z" fill="#928CD1" fill-opacity="0.525"/>
<path d="M109.433 32.3847C110.526 32.3847 111.412 31.4985 111.412 30.4052C111.412 29.312 110.526 28.4258 109.433 28.4258C108.34 28.4258 107.454 29.312 107.454 30.4052C107.454 31.4985 108.34 32.3847 109.433 32.3847Z" fill="#928CD1" fill-opacity="0.525"/>
<path d="M116.675 39.5869C117.669 39.5869 118.474 38.7817 118.474 37.7885C118.474 36.7954 117.669 35.9902 116.675 35.9902C115.682 35.9902 114.877 36.7954 114.877 37.7885C114.877 38.7817 115.682 39.5869 116.675 39.5869Z" fill="#928CD1" fill-opacity="0.525"/>
<path d="M125.539 37.7889C125.539 38.6815 124.814 39.4136 123.918 39.4136C123.023 39.4136 122.301 38.6796 122.301 37.7889C122.301 36.8982 123.025 36.168 123.918 36.168C124.814 36.168 125.539 36.8982 125.539 37.7889Z" fill="#928CD1" fill-opacity="0.525"/>
<path d="M94.8465 25.1855C95.9397 25.1855 96.8259 24.2993 96.8259 23.206C96.8259 22.1128 95.9397 21.2266 94.8465 21.2266C93.7532 21.2266 92.867 22.1128 92.867 23.206C92.867 24.2993 93.7532 25.1855 94.8465 25.1855Z" fill="#928CD1" fill-opacity="0.525"/>
<path d="M102.089 25.0067C103.083 25.0067 103.889 24.2007 103.889 23.2064C103.889 22.2122 103.083 21.4062 102.089 21.4062C101.095 21.4062 100.289 22.2122 100.289 23.2064C100.289 24.2007 101.095 25.0067 102.089 25.0067Z" fill="#928CD1" fill-opacity="0.525"/>
<path d="M109.331 24.8278C110.226 24.8278 110.952 24.1021 110.952 23.2069C110.952 22.3117 110.226 21.5859 109.331 21.5859C108.436 21.5859 107.71 22.3117 107.71 23.2069C107.71 24.1021 108.436 24.8278 109.331 24.8278Z" fill="#928CD1" fill-opacity="0.525"/>
<path d="M131.158 39.2311C131.953 39.2311 132.598 38.5865 132.598 37.7913C132.598 36.9962 131.953 36.3516 131.158 36.3516C130.363 36.3516 129.718 36.9962 129.718 37.7913C129.718 38.5865 130.363 39.2311 131.158 39.2311Z" fill="#928CD1" fill-opacity="0.525"/>
<path d="M138.4 39.0521C139.098 39.0521 139.663 38.487 139.663 37.7897C139.663 37.0925 139.098 36.5273 138.4 36.5273C137.703 36.5273 137.138 37.0925 137.138 37.7897C137.138 38.487 137.703 39.0521 138.4 39.0521Z" fill="#928CD1" fill-opacity="0.525"/>
<path d="M116.666 31.6637C117.361 31.6637 117.925 31.1002 117.925 30.4051C117.925 29.71 117.361 29.1465 116.666 29.1465C115.971 29.1465 115.407 29.71 115.407 30.4051C115.407 31.1002 115.971 31.6637 116.666 31.6637Z" fill="#928CD1" fill-opacity="0.525"/>
<path d="M145.643 38.8677C146.239 38.8677 146.722 38.3845 146.722 37.7883C146.722 37.1922 146.239 36.709 145.643 36.709C145.047 36.709 144.563 37.1922 144.563 37.7883C144.563 38.3845 145.047 38.8677 145.643 38.8677Z" fill="#928CD1" fill-opacity="0.525"/>
<path d="M123.906 31.4848C124.503 31.4848 124.988 31.0007 124.988 30.4035C124.988 29.8064 124.503 29.3223 123.906 29.3223C123.309 29.3223 122.825 29.8064 122.825 30.4035C122.825 31.0007 123.309 31.4848 123.906 31.4848Z" fill="#928CD1" fill-opacity="0.525"/>
<path d="M152.885 38.6925C153.384 38.6925 153.789 38.2878 153.789 37.7886C153.789 37.2894 153.384 36.8848 152.885 36.8848C152.386 36.8848 151.981 37.2894 151.981 37.7886C151.981 38.2878 152.386 38.6925 152.885 38.6925Z" fill="#928CD1" fill-opacity="0.525"/>
<path d="M160.125 38.5158C160.525 38.5158 160.848 38.1922 160.848 37.793C160.848 37.3939 160.525 37.0703 160.125 37.0703C159.726 37.0703 159.403 37.3939 159.403 37.793C159.403 38.1922 159.726 38.5158 160.125 38.5158Z" fill="#928CD1" fill-opacity="0.525"/>
<path d="M130.956 31.1271C131.355 31.1271 131.679 30.8035 131.679 30.4044C131.679 30.0052 131.355 29.6816 130.956 29.6816C130.557 29.6816 130.233 30.0052 130.233 30.4044C130.233 30.8035 130.557 31.1271 130.956 31.1271Z" fill="#928CD1" fill-opacity="0.525"/>
<path d="M58.5915 32.5616C59.7837 32.5616 60.7502 31.5951 60.7502 30.4029C60.7502 29.2106 59.7837 28.2441 58.5915 28.2441C57.3992 28.2441 56.4327 29.2106 56.4327 30.4029C56.4327 31.5951 57.3992 32.5616 58.5915 32.5616Z" fill="#928CD1" fill-opacity="0.525"/>
<path d="M51.3492 32.3847C52.4424 32.3847 53.3286 31.4985 53.3286 30.4052C53.3286 29.312 52.4424 28.4258 51.3492 28.4258C50.2559 28.4258 49.3697 29.312 49.3697 30.4052C49.3697 31.4985 50.2559 32.3847 51.3492 32.3847Z" fill="#928CD1" fill-opacity="0.525"/>
<path d="M44.1162 31.6656C44.8124 31.6656 45.3767 31.1012 45.3767 30.405C45.3767 29.7089 44.8124 29.1445 44.1162 29.1445C43.4201 29.1445 42.8557 29.7089 42.8557 30.405C42.8557 31.1012 43.4201 31.6656 44.1162 31.6656Z" fill="#928CD1" fill-opacity="0.525"/>
<path d="M36.8758 31.4848C37.473 31.4848 37.9571 31.0007 37.9571 30.4035C37.9571 29.8064 37.473 29.3223 36.8758 29.3223C36.2787 29.3223 35.7946 29.8064 35.7946 30.4035C35.7946 31.0007 36.2787 31.4848 36.8758 31.4848Z" fill="#928CD1" fill-opacity="0.525"/>
<path d="M29.8279 31.1271C30.227 31.1271 30.5506 30.8035 30.5506 30.4044C30.5506 30.0052 30.227 29.6816 29.8279 29.6816C29.4287 29.6816 29.1051 30.0052 29.1051 30.4044C29.1051 30.8035 29.4287 31.1271 29.8279 31.1271Z" fill="#928CD1" fill-opacity="0.525"/>
<path d="M58.5915 39.9952C59.7837 39.9952 60.7502 39.0287 60.7502 37.8365C60.7502 36.6442 59.7837 35.6777 58.5915 35.6777C57.3992 35.6777 56.4327 36.6442 56.4327 37.8365C56.4327 39.0287 57.3992 39.9952 58.5915 39.9952Z" fill="#928CD1" fill-opacity="0.525"/>
<path d="M51.3492 39.8164C52.4424 39.8164 53.3286 38.9301 53.3286 37.8369C53.3286 36.7437 52.4424 35.8574 51.3492 35.8574C50.2559 35.8574 49.3697 36.7437 49.3697 37.8369C49.3697 38.9301 50.2559 39.8164 51.3492 39.8164Z" fill="#928CD1" fill-opacity="0.525"/>
<path d="M44.1162 39.1011C44.8124 39.1011 45.3767 38.5368 45.3767 37.8406C45.3767 37.1444 44.8124 36.5801 44.1162 36.5801C43.4201 36.5801 42.8557 37.1444 42.8557 37.8406C42.8557 38.5368 43.4201 39.1011 44.1162 39.1011Z" fill="#928CD1" fill-opacity="0.525"/>
<path d="M36.8758 38.9203C37.473 38.9203 37.9571 38.4362 37.9571 37.8391C37.9571 37.2419 37.473 36.7578 36.8758 36.7578C36.2787 36.7578 35.7946 37.2419 35.7946 37.8391C35.7946 38.4362 36.2787 38.9203 36.8758 38.9203Z" fill="#928CD1" fill-opacity="0.525"/>
<path d="M29.8279 38.5646C30.227 38.5646 30.5506 38.241 30.5506 37.8419C30.5506 37.4427 30.227 37.1191 29.8279 37.1191C29.4287 37.1191 29.1051 37.4427 29.1051 37.8419C29.1051 38.241 29.4287 38.5646 29.8279 38.5646Z" fill="#928CD1" fill-opacity="0.525"/>
<path d="M95.1333 17.793C96.2255 17.793 97.1109 16.9077 97.1109 15.8155C97.1109 14.7233 96.2255 13.8379 95.1333 13.8379C94.0411 13.8379 93.1557 14.7233 93.1557 15.8155C93.1557 16.9077 94.0411 17.793 95.1333 17.793Z" fill="#928CD1" fill-opacity="0.525"/>
<path d="M103.627 15.8172C103.627 16.5135 103.061 17.0815 102.364 17.0815C101.668 17.0815 101.104 16.5135 101.104 15.8172C101.104 15.1246 101.668 14.5566 102.364 14.5566C103.061 14.5566 103.627 15.1227 103.627 15.8172Z" fill="#928CD1" fill-opacity="0.525"/>
<path d="M109.607 16.9008C110.204 16.9008 110.688 16.4167 110.688 15.8195C110.688 15.2224 110.204 14.7383 109.607 14.7383C109.009 14.7383 108.525 15.2224 108.525 15.8195C108.525 16.4167 109.009 16.9008 109.607 16.9008Z" fill="#928CD1" fill-opacity="0.525"/>
<path d="M116.655 16.543C117.055 16.543 117.379 16.2186 117.379 15.8184C117.379 15.4182 117.055 15.0938 116.655 15.0938C116.254 15.0938 115.93 15.4182 115.93 15.8184C115.93 16.2186 116.254 16.543 116.655 16.543Z" fill="#928CD1" fill-opacity="0.525"/>
<path d="M94.7351 10.0356C95.3323 10.0356 95.8164 9.55146 95.8164 8.9543C95.8164 8.35714 95.3323 7.87305 94.7351 7.87305C94.138 7.87305 93.6539 8.35714 93.6539 8.9543C93.6539 9.55146 94.138 10.0356 94.7351 10.0356Z" fill="#928CD1" fill-opacity="0.525"/>
<path d="M101.785 9.67396C102.184 9.67396 102.508 9.35039 102.508 8.95124C102.508 8.55209 102.184 8.22852 101.785 8.22852C101.386 8.22852 101.062 8.55209 101.062 8.95124C101.062 9.35039 101.386 9.67396 101.785 9.67396Z" fill="#928CD1" fill-opacity="0.525"/>
<path d="M94.9352 47.4904C96.4734 47.4904 97.7204 46.2434 97.7204 44.7051C97.7204 43.1669 96.4734 41.9199 94.9352 41.9199C93.397 41.9199 92.15 43.1669 92.15 44.7051C92.15 46.2434 93.397 47.4904 94.9352 47.4904Z" fill="#928CD1" fill-opacity="0.525"/>
<path d="M94.9352 61.5002C96.4724 61.5002 97.7185 60.2541 97.7185 58.7169C97.7185 57.1797 96.4724 55.9336 94.9352 55.9336C93.398 55.9336 92.1519 57.1797 92.1519 58.7169C92.1519 60.2541 93.398 61.5002 94.9352 61.5002Z" fill="#928CD1" fill-opacity="0.525"/>
<path d="M94.9352 68.9378C96.4724 68.9378 97.7185 67.6916 97.7185 66.1544C97.7185 64.6172 96.4724 63.3711 94.9352 63.3711C93.398 63.3711 92.1519 64.6172 92.1519 66.1544C92.1519 67.6916 93.398 68.9378 94.9352 68.9378Z" fill="#928CD1" fill-opacity="0.525"/>
<path d="M73.2214 68.9378C74.7586 68.9378 76.0047 67.6916 76.0047 66.1544C76.0047 64.6172 74.7586 63.3711 73.2214 63.3711C71.6842 63.3711 70.4381 64.6172 70.4381 66.1544C70.4381 67.6916 71.6842 68.9378 73.2214 68.9378Z" fill="#928CD1" fill-opacity="0.525"/>
<path d="M66.113 10.377C67.0364 10.377 67.7849 9.62844 67.7849 8.70509C67.7849 7.78173 67.0364 7.0332 66.113 7.0332C65.1897 7.0332 64.4412 7.78173 64.4412 8.70509C64.4412 9.62844 65.1897 10.377 66.113 10.377Z" fill="#928CD1" fill-opacity="0.525"/>
<path d="M66.1131 17.8536C67.1594 17.8536 68.0076 17.0053 68.0076 15.959C68.0076 14.9127 67.1594 14.0645 66.1131 14.0645C65.0667 14.0645 64.2185 14.9127 64.2185 15.959C64.2185 17.0053 65.0667 17.8536 66.1131 17.8536Z" fill="#928CD1" fill-opacity="0.525"/>
<path d="M58.8122 103.795C59.4104 103.795 59.8954 103.31 59.8954 102.712C59.8954 102.114 59.4104 101.629 58.8122 101.629C58.214 101.629 57.7291 102.114 57.7291 102.712C57.7291 103.31 58.214 103.795 58.8122 103.795Z" fill="#928CD1" fill-opacity="0.525"/>
<path d="M51.568 103.618C52.0672 103.618 52.4719 103.214 52.4719 102.714C52.4719 102.215 52.0672 101.811 51.568 101.811C51.0688 101.811 50.6642 102.215 50.6642 102.714C50.6642 103.214 51.0688 103.618 51.568 103.618Z" fill="#928CD1" fill-opacity="0.525"/>
<path d="M44.3276 103.432C44.7268 103.432 45.0504 103.108 45.0504 102.709C45.0504 102.31 44.7268 101.986 44.3276 101.986C43.9285 101.986 43.6049 102.31 43.6049 102.709C43.6049 103.108 43.9285 103.432 44.3276 103.432Z" fill="#928CD1" fill-opacity="0.525"/>
<path d="M66.1131 104.795C67.1584 104.795 68.0058 103.948 68.0058 102.902C68.0058 101.857 67.1584 101.01 66.1131 101.01C65.0678 101.01 64.2205 101.857 64.2205 102.902C64.2205 103.948 65.0678 104.795 66.1131 104.795Z" fill="#928CD1" fill-opacity="0.525"/>
<path d="M66.1131 25.3324C67.2803 25.3324 68.2265 24.3861 68.2265 23.2189C68.2265 22.0517 67.2803 21.1055 66.1131 21.1055C64.9459 21.1055 63.9997 22.0517 63.9997 23.2189C63.9997 24.3861 64.9459 25.3324 66.1131 25.3324Z" fill="#928CD1" fill-opacity="0.525"/>
<path d="M66.1131 32.7423C67.4054 32.7423 68.453 31.6947 68.453 30.4024C68.453 29.1101 67.4054 28.0625 66.1131 28.0625C64.8208 28.0625 63.7732 29.1101 63.7732 30.4024C63.7732 31.6947 64.8208 32.7423 66.1131 32.7423Z" fill="#928CD1" fill-opacity="0.525"/>
<path d="M56.4327 95.0358C56.4327 93.8488 57.3989 92.8789 58.5896 92.8789C59.7841 92.8789 60.7521 93.8488 60.7521 95.0358C60.7521 96.234 59.7841 97.1983 58.5896 97.1983C57.3989 97.2001 56.4327 96.234 56.4327 95.0358Z" fill="#928CD1" fill-opacity="0.525"/>
<path d="M49.3697 95.0362C49.3697 93.9493 50.2566 93.0605 51.3492 93.0605C52.4436 93.0605 53.3286 93.9493 53.3286 95.0362C53.3286 96.1383 52.4436 97.0233 51.3492 97.0233C50.2566 97.0233 49.3697 96.1383 49.3697 95.0362Z" fill="#928CD1" fill-opacity="0.525"/>
<path d="M42.8557 95.0321C42.8557 94.3434 43.4237 93.7754 44.1181 93.7754C44.8144 93.7754 45.3767 94.3434 45.3767 95.0321C45.3767 95.7322 44.8144 96.2964 44.1181 96.2964C43.4237 96.2964 42.8557 95.7322 42.8557 95.0321Z" fill="#928CD1" fill-opacity="0.525"/>
<path d="M35.7946 95.0346C35.7946 94.4421 36.2795 93.959 36.8758 93.959C37.4721 93.959 37.9552 94.4421 37.9552 95.0346C37.9552 95.6346 37.4721 96.1177 36.8758 96.1177C36.2795 96.1177 35.7946 95.6346 35.7946 95.0346Z" fill="#928CD1" fill-opacity="0.525"/>
<path d="M29.8279 94.3145C30.2279 94.3145 30.5525 94.6353 30.5525 95.0334C30.5525 95.4391 30.2279 95.7599 29.8279 95.7599C29.4316 95.7599 29.1051 95.4391 29.1051 95.0334C29.1051 94.6353 29.4316 94.3145 29.8279 94.3145Z" fill="#928CD1" fill-opacity="0.525"/>
<path d="M66.1131 92.6992C64.8167 92.6992 63.7732 93.7427 63.7732 95.0316C63.7732 96.3298 64.8186 97.3714 66.1131 97.3714C67.4038 97.3714 68.4492 96.3279 68.4492 95.0316C68.4511 93.7427 67.4038 92.6992 66.1131 92.6992Z" fill="#928CD1" fill-opacity="0.525"/>
<path d="M66.1131 40.2914C67.5262 40.2914 68.6718 39.1458 68.6718 37.7326C68.6718 36.3194 67.5262 35.1738 66.1131 35.1738C64.6999 35.1738 63.5543 36.3194 63.5543 37.7326C63.5543 39.1458 64.6999 40.2914 66.1131 40.2914Z" fill="#928CD1" fill-opacity="0.525"/>
<path d="M58.5915 54.0128C59.7837 54.0128 60.7502 53.0463 60.7502 51.854C60.7502 50.6618 59.7837 49.6953 58.5915 49.6953C57.3992 49.6953 56.4327 50.6618 56.4327 51.854C56.4327 53.0463 57.3992 54.0128 58.5915 54.0128Z" fill="#928CD1" fill-opacity="0.525"/>
<path d="M51.3492 53.832C52.4424 53.832 53.3286 52.9457 53.3286 51.8525C53.3286 50.7593 52.4424 49.873 51.3492 49.873C50.2559 49.873 49.3697 50.7593 49.3697 51.8525C49.3697 52.9457 50.2559 53.832 51.3492 53.832Z" fill="#928CD1" fill-opacity="0.525"/>
<path d="M44.1162 53.1148C44.8124 53.1148 45.3767 52.5504 45.3767 51.8543C45.3767 51.1581 44.8124 50.5938 44.1162 50.5938C43.4201 50.5938 42.8557 51.1581 42.8557 51.8543C42.8557 52.5504 43.4201 53.1148 44.1162 53.1148Z" fill="#928CD1" fill-opacity="0.525"/>
<path d="M36.8758 52.934C37.473 52.934 37.9571 52.4499 37.9571 51.8527C37.9571 51.2556 37.473 50.7715 36.8758 50.7715C36.2787 50.7715 35.7946 51.2556 35.7946 51.8527C35.7946 52.4499 36.2787 52.934 36.8758 52.934Z" fill="#928CD1" fill-opacity="0.525"/>
<path d="M29.8279 52.5763C30.227 52.5763 30.5506 52.2527 30.5506 51.8536C30.5506 51.4544 30.227 51.1309 29.8279 51.1309C29.4287 51.1309 29.1051 51.4544 29.1051 51.8536C29.1051 52.2527 29.4287 52.5763 29.8279 52.5763Z" fill="#928CD1" fill-opacity="0.525"/>
<path d="M66.1131 49.1855C64.696 49.1855 63.5524 50.3347 63.5524 51.75C63.5524 53.1577 64.696 54.3069 66.1131 54.3069C67.5246 54.3069 68.6719 53.1577 68.6719 51.75C68.6738 50.3366 67.5246 49.1855 66.1131 49.1855Z" fill="#928CD1" fill-opacity="0.525"/>
<path d="M66.1131 47.7755C67.6513 47.7755 68.8983 46.5285 68.8983 44.9903C68.8983 43.4521 67.6513 42.2051 66.1131 42.2051C64.5748 42.2051 63.3279 43.4521 63.3279 44.9903C63.3279 46.5285 64.5748 47.7755 66.1131 47.7755Z" fill="#928CD1" fill-opacity="0.525"/>
<path d="M66.1131 62.1039C67.6492 62.1039 68.8945 60.8586 68.8945 59.3225C68.8945 57.7863 67.6492 56.541 66.1131 56.541C64.5769 56.541 63.3316 57.7863 63.3316 59.3225C63.3316 60.8586 64.5769 62.1039 66.1131 62.1039Z" fill="#928CD1" fill-opacity="0.525"/>
<path d="M59.1274 68.8108C60.4186 68.8108 61.4654 67.764 61.4654 66.4728C61.4654 65.1815 60.4186 64.1348 59.1274 64.1348C57.8362 64.1348 56.7894 65.1815 56.7894 66.4728C56.7894 67.764 57.8362 68.8108 59.1274 68.8108Z" fill="#928CD1" fill-opacity="0.525"/>
<path d="M51.8869 68.628C53.0792 68.628 54.0457 67.6615 54.0457 66.4693C54.0457 65.277 53.0792 64.3105 51.8869 64.3105C50.6947 64.3105 49.7282 65.277 49.7282 66.4693C49.7282 67.6615 50.6947 68.628 51.8869 68.628Z" fill="#928CD1" fill-opacity="0.525"/>
<path d="M44.3672 67.9107C45.1635 67.9107 45.8089 67.2652 45.8089 66.469C45.8089 65.6728 45.1635 65.0273 44.3672 65.0273C43.571 65.0273 42.9256 65.6728 42.9256 66.469C42.9256 67.2652 43.571 67.9107 44.3672 67.9107Z" fill="#928CD1" fill-opacity="0.525"/>
<path d="M37.1268 67.73C37.823 67.73 38.3873 67.1657 38.3873 66.4695C38.3873 65.7733 37.823 65.209 37.1268 65.209C36.4306 65.209 35.8663 65.7733 35.8663 66.4695C35.8663 67.1657 36.4306 67.73 37.1268 67.73Z" fill="#928CD1" fill-opacity="0.525"/>
<path d="M29.8845 67.5512C30.4816 67.5512 30.9657 67.0671 30.9657 66.4699C30.9657 65.8728 30.4816 65.3887 29.8845 65.3887C29.2873 65.3887 28.8032 65.8728 28.8032 66.4699C28.8032 67.0671 29.2873 67.5512 29.8845 67.5512Z" fill="#928CD1" fill-opacity="0.525"/>
<path d="M22.6422 67.3742C23.1414 67.3742 23.546 66.9695 23.546 66.4703C23.546 65.9711 23.1414 65.5664 22.6422 65.5664C22.143 65.5664 21.7383 65.9711 21.7383 66.4703C21.7383 66.9695 22.143 67.3742 22.6422 67.3742Z" fill="#928CD1" fill-opacity="0.525"/>
<path d="M15.4018 67.1917C15.7999 67.1917 16.1226 66.8689 16.1226 66.4708C16.1226 66.0727 15.7999 65.75 15.4018 65.75C15.0037 65.75 14.6809 66.0727 14.6809 66.4708C14.6809 66.8689 15.0037 67.1917 15.4018 67.1917Z" fill="#928CD1" fill-opacity="0.525"/>
<path d="M7.96506 67.0675C8.29543 67.0675 8.56324 66.7996 8.56324 66.4693C8.56324 66.1389 8.29543 65.8711 7.96506 65.8711C7.6347 65.8711 7.36688 66.1389 7.36688 66.4693C7.36688 66.7996 7.6347 67.0675 7.96506 67.0675Z" fill="#928CD1" fill-opacity="0.525"/>
<path d="M0.528361 67.0001C0.820167 67.0001 1.05672 66.7635 1.05672 66.4717C1.05672 66.1799 0.820167 65.9434 0.528361 65.9434C0.236555 65.9434 0 66.1799 0 66.4717C0 66.7635 0.236555 67.0001 0.528361 67.0001Z" fill="#928CD1" fill-opacity="0.525"/>
<path d="M66.1131 69.2522C67.6503 69.2522 68.8964 68.0061 68.8964 66.4689C68.8964 64.9317 67.6503 63.6855 66.1131 63.6855C64.5759 63.6855 63.3297 64.9317 63.3297 66.4689C63.3297 68.0061 64.5759 69.2522 66.1131 69.2522Z" fill="#928CD1" fill-opacity="0.525"/>
<path d="M59.1274 75.9554C60.4176 75.9554 61.4635 74.9095 61.4635 73.6193C61.4635 72.3291 60.4176 71.2832 59.1274 71.2832C57.8372 71.2832 56.7913 72.3291 56.7913 73.6193C56.7913 74.9095 57.8372 75.9554 59.1274 75.9554Z" fill="#928CD1" fill-opacity="0.525"/>
<path d="M51.8869 75.7784C53.0792 75.7784 54.0457 74.8119 54.0457 73.6197C54.0457 72.4274 53.0792 71.4609 51.8869 71.4609C50.6947 71.4609 49.7282 72.4274 49.7282 73.6197C49.7282 74.8119 50.6947 75.7784 51.8869 75.7784Z" fill="#928CD1" fill-opacity="0.525"/>
<path d="M42.9256 73.6176C42.9256 72.8213 43.5728 72.1797 44.371 72.1797C45.1636 72.1797 45.8089 72.8213 45.8089 73.6176C45.8089 74.4177 45.1636 75.0592 44.371 75.0592C43.5728 75.0592 42.9256 74.4177 42.9256 73.6176Z" fill="#928CD1" fill-opacity="0.525"/>
<path d="M35.8663 73.6217C35.8663 72.9254 36.4305 72.3574 37.1268 72.3574C37.8231 72.3574 38.3892 72.9216 38.3892 73.6217C38.3873 74.3142 37.8231 74.8785 37.1268 74.8785C36.4305 74.8785 35.8663 74.3161 35.8663 73.6217Z" fill="#928CD1" fill-opacity="0.525"/>
<path d="M29.8845 74.7035C30.4816 74.7035 30.9657 74.2194 30.9657 73.6223C30.9657 73.0251 30.4816 72.541 29.8845 72.541C29.2873 72.541 28.8032 73.0251 28.8032 73.6223C28.8032 74.2194 29.2873 74.7035 29.8845 74.7035Z" fill="#928CD1" fill-opacity="0.525"/>
<path d="M22.6422 74.5245C23.1414 74.5245 23.546 74.1199 23.546 73.6207C23.546 73.1215 23.1414 72.7168 22.6422 72.7168C22.143 72.7168 21.7383 73.1215 21.7383 73.6207C21.7383 74.1199 22.143 74.5245 22.6422 74.5245Z" fill="#928CD1" fill-opacity="0.525"/>
<path d="M15.4018 74.3401C15.7999 74.3401 16.1226 74.0174 16.1226 73.6193C16.1226 73.2212 15.7999 72.8984 15.4018 72.8984C15.0037 72.8984 14.6809 73.2212 14.6809 73.6193C14.6809 74.0174 15.0037 74.3401 15.4018 74.3401Z" fill="#928CD1" fill-opacity="0.525"/>
<path d="M7.96506 74.2198C8.29543 74.2198 8.56324 73.952 8.56324 73.6216C8.56324 73.2912 8.29543 73.0234 7.96506 73.0234C7.6347 73.0234 7.36688 73.2912 7.36688 73.6216C7.36688 73.952 7.6347 74.2198 7.96506 74.2198Z" fill="#928CD1" fill-opacity="0.525"/>
<path d="M0.528361 74.1505C0.820167 74.1505 1.05672 73.9139 1.05672 73.6221C1.05672 73.3303 0.820167 73.0938 0.528361 73.0938C0.236555 73.0938 0 73.3303 0 73.6221C0 73.9139 0.236555 74.1505 0.528361 74.1505Z" fill="#928CD1" fill-opacity="0.525"/>
<path d="M131.326 81.8692C131.618 81.8692 131.854 81.6327 131.854 81.3409C131.854 81.0491 131.618 80.8125 131.326 80.8125C131.034 80.8125 130.798 81.0491 130.798 81.3409C130.798 81.6327 131.034 81.8692 131.326 81.8692Z" fill="#928CD1" fill-opacity="0.525"/>
<path d="M131.326 89.0178C131.617 89.0178 131.853 88.7821 131.853 88.4913C131.853 88.2006 131.617 87.9648 131.326 87.9648C131.035 87.9648 130.8 88.2006 130.8 88.4913C130.8 88.7821 131.035 89.0178 131.326 89.0178Z" fill="#928CD1" fill-opacity="0.525"/>
<path d="M66.1112 83.3968C67.4014 83.3968 68.4473 82.3509 68.4473 81.0607C68.4473 79.7705 67.4014 78.7246 66.1112 78.7246C64.821 78.7246 63.7751 79.7705 63.7751 81.0607C63.7751 82.3509 64.821 83.3968 66.1112 83.3968Z" fill="#928CD1" fill-opacity="0.525"/>
<path d="M59.0368 83.2179C60.229 83.2179 61.1955 82.2514 61.1955 81.0591C61.1955 79.8669 60.229 78.9004 59.0368 78.9004C57.8446 78.9004 56.8781 79.8669 56.8781 81.0591C56.8781 82.2514 57.8446 83.2179 59.0368 83.2179Z" fill="#928CD1" fill-opacity="0.525"/>
<path d="M51.519 82.5005C52.3152 82.5005 52.9606 81.8551 52.9606 81.0589C52.9606 80.2626 52.3152 79.6172 51.519 79.6172C50.7228 79.6172 50.0773 80.2626 50.0773 81.0589C50.0773 81.8551 50.7228 82.5005 51.519 82.5005Z" fill="#928CD1" fill-opacity="0.525"/>
<path d="M44.2767 82.3217C44.9739 82.3217 45.5391 81.7565 45.5391 81.0593C45.5391 80.3621 44.9739 79.7969 44.2767 79.7969C43.5795 79.7969 43.0143 80.3621 43.0143 81.0593C43.0143 81.7565 43.5795 82.3217 44.2767 82.3217Z" fill="#928CD1" fill-opacity="0.525"/>
<path d="M37.0362 82.1409C37.6344 82.1409 38.1194 81.6559 38.1194 81.0577C38.1194 80.4595 37.6344 79.9746 37.0362 79.9746C36.438 79.9746 35.9531 80.4595 35.9531 81.0577C35.9531 81.6559 36.438 82.1409 37.0362 82.1409Z" fill="#928CD1" fill-opacity="0.525"/>
<path d="M29.792 81.9583C30.2902 81.9583 30.694 81.5544 30.694 81.0563C30.694 80.5581 30.2902 80.1543 29.792 80.1543C29.2938 80.1543 28.89 80.5581 28.89 81.0563C28.89 81.5544 29.2938 81.9583 29.792 81.9583Z" fill="#928CD1" fill-opacity="0.525"/>
<path d="M22.5497 81.7814C22.9488 81.7814 23.2724 81.4578 23.2724 81.0587C23.2724 80.6595 22.9488 80.3359 22.5497 80.3359C22.1505 80.3359 21.827 80.6595 21.827 81.0587C21.827 81.4578 22.1505 81.7814 22.5497 81.7814Z" fill="#928CD1" fill-opacity="0.525"/>
<path d="M15.1168 81.6535C15.4461 81.6535 15.7131 81.3865 15.7131 81.0572C15.7131 80.7279 15.4461 80.4609 15.1168 80.4609C14.7874 80.4609 14.5205 80.7279 14.5205 81.0572C14.5205 81.3865 14.7874 81.6535 15.1168 81.6535Z" fill="#928CD1" fill-opacity="0.525"/>
<path d="M7.6801 81.5842C7.97086 81.5842 8.20657 81.3485 8.20657 81.0577C8.20657 80.767 7.97086 80.5312 7.6801 80.5312C7.38934 80.5312 7.15363 80.767 7.15363 81.0577C7.15363 81.3485 7.38934 81.5842 7.6801 81.5842Z" fill="#928CD1" fill-opacity="0.525"/>
<path d="M66.1112 90.5432C67.4024 90.5432 68.4492 89.4964 68.4492 88.2052C68.4492 86.9139 67.4024 85.8672 66.1112 85.8672C64.8199 85.8672 63.7732 86.9139 63.7732 88.2052C63.7732 89.4964 64.8199 90.5432 66.1112 90.5432Z" fill="#928CD1" fill-opacity="0.525"/>
<path d="M59.0368 90.3663C60.229 90.3663 61.1955 89.3998 61.1955 88.2076C61.1955 87.0153 60.229 86.0488 59.0368 86.0488C57.8446 86.0488 56.8781 87.0153 56.8781 88.2076C56.8781 89.3998 57.8446 90.3663 59.0368 90.3663Z" fill="#928CD1" fill-opacity="0.525"/>
<path d="M51.519 89.649C52.3152 89.649 52.9606 89.0035 52.9606 88.2073C52.9606 87.4111 52.3152 86.7656 51.519 86.7656C50.7228 86.7656 50.0773 87.4111 50.0773 88.2073C50.0773 89.0035 50.7228 89.649 51.519 89.649Z" fill="#928CD1" fill-opacity="0.525"/>
<path d="M44.2767 89.4701C44.9739 89.4701 45.5391 88.9049 45.5391 88.2077C45.5391 87.5105 44.9739 86.9453 44.2767 86.9453C43.5795 86.9453 43.0143 87.5105 43.0143 88.2077C43.0143 88.9049 43.5795 89.4701 44.2767 89.4701Z" fill="#928CD1" fill-opacity="0.525"/>
<path d="M37.0362 89.2893C37.6344 89.2893 38.1194 88.8044 38.1194 88.2062C38.1194 87.608 37.6344 87.123 37.0362 87.123C36.438 87.123 35.9531 87.608 35.9531 88.2062C35.9531 88.8044 36.438 89.2893 37.0362 89.2893Z" fill="#928CD1" fill-opacity="0.525"/>
<path d="M29.792 89.1087C30.2902 89.1087 30.694 88.7048 30.694 88.2067C30.694 87.7085 30.2902 87.3047 29.792 87.3047C29.2938 87.3047 28.89 87.7085 28.89 88.2067C28.89 88.7048 29.2938 89.1087 29.792 89.1087Z" fill="#928CD1" fill-opacity="0.525"/>
<path d="M22.5497 88.9318C22.9488 88.9318 23.2724 88.6082 23.2724 88.209C23.2724 87.8099 22.9488 87.4863 22.5497 87.4863C22.1505 87.4863 21.827 87.8099 21.827 88.209C21.827 88.6082 22.1505 88.9318 22.5497 88.9318Z" fill="#928CD1" fill-opacity="0.525"/>
<path d="M15.1168 88.8096C15.4472 88.8096 15.715 88.5418 15.715 88.2114C15.715 87.8811 15.4472 87.6133 15.1168 87.6133C14.7864 87.6133 14.5186 87.8811 14.5186 88.2114C14.5186 88.5418 14.7864 88.8096 15.1168 88.8096Z" fill="#928CD1" fill-opacity="0.525"/>
<path d="M66.1131 76.4083C67.6513 76.4083 68.8983 75.1613 68.8983 73.6231C68.8983 72.0849 67.6513 70.8379 66.1131 70.8379C64.5748 70.8379 63.3279 72.0849 63.3279 73.6231C63.3279 75.1613 64.5748 76.4083 66.1131 76.4083Z" fill="#928CD1" fill-opacity="0.525"/>
<path d="M42.166 76C39.4156 76 36.7564 75.6245 34.1883 74.8736C31.6202 74.1227 29.5574 73.1464 28 71.9449L30.7338 65.8373C32.2249 66.9387 33.9978 67.8231 36.0522 68.4906C38.1067 69.1581 40.1612 69.4919 42.2157 69.4919C44.5021 69.4919 46.1921 69.1498 47.2856 68.4656C48.3791 67.7814 48.9259 66.8719 48.9259 65.7372C48.9259 64.9028 48.6028 64.2103 47.9566 63.6596C47.3104 63.1089 46.482 62.6667 45.4714 62.3329C44.4607 61.9992 43.0938 61.632 41.3707 61.2315C38.7197 60.5974 36.5493 59.9633 34.8593 59.3292C33.1693 58.695 31.7196 57.6771 30.5101 56.2753C29.3006 54.8736 28.6959 53.0046 28.6959 50.6683C28.6959 48.6325 29.2426 46.7885 30.3361 45.1364C31.4297 43.4844 33.0782 42.1744 35.2818 41.2065C37.4854 40.2386 40.1778 39.7547 43.3589 39.7547C45.5791 39.7547 47.7495 40.0217 49.8703 40.5557C51.991 41.0897 53.8467 41.8573 55.4372 42.8586L52.952 49.0163C49.7377 47.1806 46.5234 46.2628 43.3092 46.2628C41.0559 46.2628 39.3908 46.63 38.3138 47.3642C37.2369 48.0985 36.6984 49.0663 36.6984 50.2678C36.6984 51.4693 37.3197 52.3621 38.5623 52.9462C39.805 53.5302 41.7021 54.106 44.2536 54.6733C46.9045 55.3075 49.075 55.9416 50.765 56.5757C52.4549 57.2098 53.9047 58.2111 55.1142 59.5795C56.3236 60.9479 56.9284 62.8002 56.9284 65.1364C56.9284 67.1389 56.3733 68.9662 55.2633 70.6183C54.1532 72.2703 52.4881 73.5803 50.2679 74.5482C48.0477 75.5161 45.3471 76 42.166 76ZM74.6234 75.7998C71.8068 75.7998 69.2801 75.2073 67.0434 74.0225C64.8067 72.8377 63.0587 71.194 61.7995 69.0914C60.5403 66.9887 59.9107 64.6024 59.9107 61.9324C59.9107 59.2624 60.5403 56.8761 61.7995 54.7735C63.0587 52.6708 64.8067 51.0271 67.0434 49.8423C69.2801 48.6575 71.8068 48.0651 74.6234 48.0651C77.44 48.0651 79.9584 48.6575 82.1786 49.8423C84.3988 51.0271 86.1384 52.6708 87.3976 54.7735C88.6568 56.8761 89.2864 59.2624 89.2864 61.9324C89.2864 64.6024 88.6568 66.9887 87.3976 69.0914C86.1384 71.194 84.3988 72.8377 82.1786 74.0225C79.9584 75.2073 77.44 75.7998 74.6234 75.7998ZM74.6234 69.3917C76.6116 69.3917 78.2436 68.7159 79.5194 67.3642C80.7951 66.0125 81.433 64.2019 81.433 61.9324C81.433 59.6629 80.7951 57.8523 79.5194 56.5006C78.2436 55.1489 76.6116 54.4731 74.6234 54.4731C72.6352 54.4731 70.9949 55.1489 69.7026 56.5006C68.4103 57.8523 67.7641 59.6629 67.7641 61.9324C67.7641 64.2019 68.4103 66.0125 69.7026 67.3642C70.9949 68.7159 72.6352 69.3917 74.6234 69.3917ZM94.4558 75.3993V38.2528H102.21V75.3993H94.4558ZM109.417 75.3993V48.4656H117.171V75.3993H109.417ZM113.294 44.7109C111.869 44.7109 110.709 44.2937 109.815 43.4593C108.92 42.6249 108.473 41.5903 108.473 40.3554C108.473 39.1206 108.92 38.0859 109.815 37.2516C110.709 36.4172 111.869 36 113.294 36C114.719 36 115.879 36.4005 116.773 37.2015C117.668 38.0025 118.115 39.0038 118.115 40.2053C118.115 41.5069 117.668 42.5832 116.773 43.4343C115.879 44.2854 114.719 44.7109 113.294 44.7109ZM133.375 75.7998C131.155 75.7998 128.984 75.5244 126.864 74.9737C124.743 74.423 123.053 73.7305 121.794 72.8961L124.378 67.2891C125.571 68.0567 127.013 68.6825 128.703 69.1665C130.393 69.6504 132.049 69.8924 133.673 69.8924C136.954 69.8924 138.594 69.0747 138.594 67.4393C138.594 66.6717 138.147 66.121 137.252 65.7872C136.357 65.4535 134.982 65.1698 133.126 64.9362C130.939 64.6024 129.133 64.2186 127.709 63.7847C126.284 63.3509 125.049 62.5832 124.005 61.4819C122.962 60.3805 122.44 58.8118 122.44 56.776C122.44 55.0738 122.929 53.5636 123.906 52.2453C124.884 50.927 126.308 49.9007 128.181 49.1665C130.053 48.4322 132.265 48.0651 134.816 48.0651C136.705 48.0651 138.586 48.2737 140.458 48.6909C142.33 49.1081 143.879 49.6838 145.105 50.418L142.521 55.975C140.168 54.64 137.6 53.9725 134.816 53.9725C133.16 53.9725 131.917 54.2061 131.088 54.6733C130.26 55.1406 129.846 55.7413 129.846 56.4756C129.846 57.31 130.293 57.894 131.188 58.2278C132.083 58.5615 133.507 58.8786 135.463 59.179C137.65 59.5461 139.439 59.9383 140.831 60.3554C142.222 60.7726 143.432 61.5319 144.459 62.6333C145.486 63.7347 146 65.2699 146 67.239C146 68.9078 145.503 70.393 144.509 71.6946C143.515 72.9962 142.065 74.0058 140.16 74.7234C138.254 75.441 135.993 75.7998 133.375 75.7998Z" fill="#28208C"/>
</svg>
